{"title":"Boy.Wonder.2010.DVDrip.XViD.AC3-5.1.SeT-CM8","uid":6867867,"size":1295279802,"categoryP":"video","categoryS":"movies","magnet":"?xt=urn:btih:3526ded88b6740094f87cf8fc2cdafbe28add0e1&amp;dn=Boy.Wonder.2010.DVDrip.XViD.AC3-5.1.SeT-CM8&amp;tr=udp%3A%2F%2Ftracker.openbittorrent.com%3A80&amp;tr=udp%3A%2F%2Fopen.demonii.com%3A1337&amp;tr=udp%3A%2F%2Ftracker.coppersurfer.tk%3A6969&amp;tr=udp%3A%2F%2Fexodus.desync.com%3A6969","seeders":0,"leechers":0,"uploader":"HeroMaster","files":-1,"time":1323170614,"description":"Boy.Wonder.2010.DVDrip.XViD.AC3-5.1.SeT-CM8\n\n &lt;a href=&quot;\nhttp://www.imdb.com/title/tt1456060/&quot; rel=&quot;nofollow&quot; target=&quot;_NEW&quot;&gt;\nhttp://www.imdb.com/title/tt1456060/&lt;/a&gt;\n\n\nA young Brooklyn boy witnesses the brutal murder of his mother and grows up obsessed with finding her killer.Thus begins his life as a quiet, straight-A student by day and a self-appointed hero at night. But what is a real hero? \nAnd who decides what is right or wrong? As the boundaries blur, Sean's dual \nlife wears on his psyche and his two worlds careen dangerously close to \ncolliding. \n\n\nSource - DVD\n\nCM8 Doing It Right The First Time\n\n\nFormat                           : AVI\nFormat/Info                      : Audio Video Interleave\nFile size                        : 1.19 GiB\nDuration                         : 1h 36mn\nOverall bit rate                 : 1 770 Kbps\nWriting library                  : VirtualDub build 30091/release\n\nVideo\nID                               : 0\nFormat                           : MPEG-4 Visual\nFormat profile                   : Advanced Simple@L5\nFormat settings, BVOP            : 2\nFormat settings, QPel            : No\nFormat settings, GMC             : No warppoints\nFormat settings, Matrix          : Default (H.263)\nCodec ID                         : XVID\nCodec ID/Hint                    : XviD\nDuration                         : 1h 36mn\nBit rate                         : 1 439 Kbps\nWidth                            : 720 pixels\nHeight                           : 304 pixels\nDisplay aspect ratio             : 2.35:1\nFrame rate                       : 29.970 fps\nColor space                      : YUV\nChroma subsampling               : 4:2:0\nBit depth                        : 8 bits\nScan type                        : Progressive\nCompression mode                 : Lossy\nBits/(Pixel*Frame)               : 0.219\nStream size                      : 992 MiB (81%)\nWriting library                  : XviD 1.2.1 (UTC 2008-12-04)\n\nAudio\nID                               : 1\nFormat                           : AC-3\nFormat/Info                      : Audio Coding 3\nMode extension                   : CM (complete main)\nCodec ID                         : 2000\nDuration                         : 1h 36mn\nBit rate mode                    : Constant\nBit rate                         : 320 Kbps\nChannel(s)                       : 6 channels\nChannel positions                : Front: L C R, Side: L R, LFE\nSampling rate                    : 48.0 KHz\nBit depth                        : 16 bits\nCompression mode                 : Lossy\nStream size                      : 221 MiB (18%)\nAlignment                        : Split accross interleaves\nInterleave, duration             : 33 ms (1.00 video frame)\nInterleave, preload duration     : 500 ms\n\n\nPoster:\n\n &lt;a href=&quot;\nhttp://i.imgur.com/6hoLf.jpg&quot; rel=&quot;nofollow&quot; target=&quot;_NEW&quot;&gt;\nhttp://i.imgur.com/6hoLf.jpg&lt;/a&gt;\n\n\nScreenshots:\n\n &lt;a href=&quot;\nhttp://i.imgur.com/bEA16.jpg&quot; rel=&quot;nofollow&quot; target=&quot;_NEW&quot;&gt;\nhttp://i.imgur.com/bEA16.jpg&lt;/a&gt;\n\n\nENJOY!","torrent":{"xt":"urn:btih:3526ded88b6740094f87cf8fc2cdafbe28add0e1","amp;dn":"Boy.Wonder.2010.DVDrip.XViD.AC3-5.1.SeT-CM8","amp;tr":["udp%3A%2F%2Ftracker.openbittorrent.com%3A80","udp%3A%2F%2Fopen.demonii.com%3A1337","udp%3A%2F%2Ftracker.coppersurfer.tk%3A6969","udp%3A%2F%2Fexodus.desync.com%3A6969"],"infoHash":"3526ded88b6740094f87cf8fc2cdafbe28add0e1","infoHashBuffer":{"type":"Buffer","data":[53,38,222,216,139,103,64,9,79,135,207,143,194,205,175,190,40,173,208,225]},"announce":[],"urlList":[]}}